<svg xmlns="http://www.w3.org/2000/svg" viewBox="0 0 1600 760" role="img" aria-labelledby="title desc">
  <title id="title">Hydrosphere visual</title>
  <desc id="desc">A dark scientific hydrology landscape with river networks, contours, and atmospheric water patterns.</desc>
  <defs>
    <linearGradient id="bg" x1="0" x2="1" y1="0" y2="1">
      <stop offset="0" stop-color="#0b1d2a"/>
      <stop offset=".48" stop-color="#0e4d56"/>
      <stop offset="1" stop-color="#142036"/>
    </linearGradient>
    <radialGradient id="glow" cx=".72" cy=".28" r=".55">
      <stop offset="0" stop-color="#a7f1e3" stop-opacity=".52"/>
      <stop offset=".42" stop-color="#53b2a8" stop-opacity=".18"/>
      <stop offset="1" stop-color="#0b1d2a" stop-opacity="0"/>
    </radialGradient>
    <filter id="soft">
      <feGaussianBlur stdDeviation="6"/>
    </filter>
    <pattern id="grid" width="74" height="74" patternUnits="userSpaceOnUse">
      <path d="M74 0H0v74" fill="none" stroke="#ffffff" stroke-opacity=".055" stroke-width="1"/>
    </pattern>
  </defs>
  <rect width="1600" height="760" fill="url(#bg)"/>
  <rect width="1600" height="760" fill="url(#grid)"/>
  <rect width="1600" height="760" fill="url(#glow)"/>
  <g fill="none" stroke-linecap="round" stroke-linejoin="round">
    <path d="M-40 582C174 458 312 514 472 388 623 270 771 296 948 168c129-93 257-92 422-54 99 23 175 8 269-45" stroke="#d8fff7" stroke-opacity=".55" stroke-width="9"/>
    <path d="M172 494c80 25 135 74 175 151M496 374c76 54 118 110 142 191M905 190c66 86 137 137 233 171M1245 113c50 89 117 145 222 184" stroke="#b4eee5" stroke-opacity=".42" stroke-width="5"/>
    <path d="M-56 696C156 556 321 603 514 476c148-97 292-93 423-202 130-108 264-100 408-67 111 25 187-5 307-80" stroke="#7ed8cf" stroke-opacity=".30" stroke-width="4"/>
    <path d="M-20 332C166 244 282 278 435 178 575 86 724 96 875 34M71 170C205 93 350 112 476 46" stroke="#ffffff" stroke-opacity=".16" stroke-width="3"/>
    <path d="M22 642c176-42 287-11 425-89 130-74 222-97 392-68 184 32 308-41 507-111" stroke="#ffffff" stroke-opacity=".11" stroke-width="2"/>
  </g>
  <g fill="#f1d18a" opacity=".9">
    <circle cx="472" cy="388" r="8"/>
    <circle cx="948" cy="168" r="8"/>
    <circle cx="1138" cy="361" r="7"/>
    <circle cx="638" cy="565" r="6"/>
  </g>
  <g opacity=".5" filter="url(#soft)">
    <circle cx="1280" cy="168" r="82" fill="#9ff4e7"/>
    <circle cx="1044" cy="596" r="118" fill="#4f9bd8" opacity=".42"/>
  </g>
  <path d="M0 760V612c140 33 268 40 400 19 159-26 270-91 429-96 175-6 292 60 446 61 136 0 231-45 325-93v257Z" fill="#07131c" opacity=".34"/>
</svg>
