<svg xmlns="http://www.w3.org/2000/svg" viewBox="0 0 1200 900" role="img" aria-labelledby="title desc">
  <title id="title">GCHG logo options</title>
  <desc id="desc">Nine GCHG logo concepts using lighter letters and a single streamlined wave as the H crossbar.</desc>
  <defs>
    <style>
      .title{font-family:-apple-system,BlinkMacSystemFont,"Segoe UI",Arial,sans-serif;font-weight:820;fill:#233532}
      .sub{font-family:-apple-system,BlinkMacSystemFont,"Segoe UI",Arial,sans-serif;font-weight:620;fill:#667873}
      .label{font-family:-apple-system,BlinkMacSystemFont,"Segoe UI",Arial,sans-serif;font-size:17px;font-weight:760;fill:#8fa6a0}
      .caption{font-family:-apple-system,BlinkMacSystemFont,"Segoe UI",Arial,sans-serif;font-size:13px;font-weight:650;fill:#6f8580}
      .card{fill:#071112;stroke:#213937;stroke-width:1.25}
      .letters{font-family:Arial,Helvetica,sans-serif;font-size:64px;font-weight:700;letter-spacing:8px;fill:#f7fbf8}
      .cut{fill:#071112}
      .wave{fill:#a8d2cc}
    </style>
  </defs>
  <rect width="1200" height="900" fill="#f5f9f7"/>
  <text class="title" x="72" y="64" font-size="28">GCHG logo directions</text>
  <text class="sub" x="72" y="96" font-size="16">Lighter letters; one refined wave replaces only the H crossbar</text>

  <g transform="translate(72 132)">
    <g transform="translate(0 0)">
      <rect class="card" width="320" height="190" rx="10"/>
      <text class="label" x="24" y="35">01 / balanced stream</text>
      <g>
        <text class="letters" x="50" y="124">GCHG</text>
        <rect class="cut" x="183" y="88" width="29" height="19" rx="7"/>
        <path class="wave" d="M172 100c8.9-7.9 17.2-7.9 25.7 0 8.9 8.2 17.4 8.2 26.2 0-1.7 4.1-5.6 7-10.5 7.4-6 .4-11.2-3.7-16.6-6.8-6.1-3.5-11.8-2.1-17.5 1.8-3 2.1-5.5 1.7-7.3-2.4z"/>
      </g>
      <text class="caption" x="24" y="162">moderate curve, main candidate</text>
    </g>

    <g transform="translate(368 0)">
      <rect class="card" width="320" height="190" rx="10"/>
      <text class="label" x="24" y="35">02 / low ripple</text>
      <g>
        <text class="letters" x="50" y="124">GCHG</text>
        <rect class="cut" x="183" y="88" width="29" height="19" rx="7"/>
        <path class="wave" d="M172.2 100.4c8.8-5.9 17.1-5.9 25.6 0 9.1 6.2 17.7 6.2 26.3 0-1.5 3.3-5.5 5.6-10.3 5.9-6.1.3-11.1-2.8-16.7-4.9-6.2-2.3-11.8-1.4-17.3 1.5-3.1 1.7-5.7 1.3-7.6-2.5z"/>
      </g>
      <text class="caption" x="24" y="162">flatter and quieter</text>
    </g>

    <g transform="translate(736 0)">
      <rect class="card" width="320" height="190" rx="10"/>
      <text class="label" x="24" y="35">03 / full crest</text>
      <g>
        <text class="letters" x="50" y="124">GCHG</text>
        <rect class="cut" x="183" y="88" width="29" height="19" rx="7"/>
        <path class="wave" d="M171.8 100.5c9.4-10.9 18.4-10.9 27.4 0 9.3 11 17.9 11 27 0-1.7 5-5.8 8.7-11.1 9.1-6.6.4-11.9-5.2-17.7-9.1-6.3-4.1-12.2-2.8-18 2.1-3.3 2.9-6 2.3-7.6-2.1z"/>
      </g>
      <text class="caption" x="24" y="162">more visible water gesture</text>
    </g>

    <g transform="translate(0 238)">
      <rect class="card" width="320" height="190" rx="10"/>
      <text class="label" x="24" y="35">04 / long flow</text>
      <g>
        <text class="letters" x="50" y="124">GCHG</text>
        <rect class="cut" x="181" y="88" width="33" height="19" rx="7"/>
        <path class="wave" d="M168.6 100.2c9.8-7.8 19.2-7.8 28.7 0 10.3 8.3 19.7 8.3 29.9 0-1.7 4.2-6.2 7.3-11.8 7.5-7 .3-12.9-3.9-19.1-6.9-6.8-3.2-13-1.8-19 2.3-3.3 2.2-6.3 1.7-8.7-2.9z"/>
      </g>
      <text class="caption" x="24" y="162">slightly wider crossbar</text>
    </g>

    <g transform="translate(368 238)">
      <rect class="card" width="320" height="190" rx="10"/>
      <text class="label" x="24" y="35">05 / tapered ribbon</text>
      <g>
        <text class="letters" x="50" y="124">GCHG</text>
        <rect class="cut" x="183" y="88" width="29" height="19" rx="7"/>
        <path class="wave" d="M172 99.8c9.1-9.1 17.7-9.1 26.4 0 8.9 9.1 17.4 9.1 26.3 0-.8 2.7-3.3 5.2-6.6 6.4-7.9 2.9-13.4-4.6-20.6-7.3-7-2.5-12.5 4.3-19.2 5.3-2.9.4-5-1.2-6.3-4.4z"/>
      </g>
      <text class="caption" x="24" y="162">thin ends, fuller center</text>
    </g>

    <g transform="translate(736 238)">
      <rect class="card" width="320" height="190" rx="10"/>
      <text class="label" x="24" y="35">06 / asymmetric flow</text>
      <g>
        <text class="letters" x="50" y="124">GCHG</text>
        <rect class="cut" x="183" y="88" width="29" height="19" rx="7"/>
        <path class="wave" d="M172.1 101.2c8.1-9.4 16.1-10.8 24.8-1.7 10.1 10.5 19.6 9.1 28.5-.8-1.5 4.3-5 7.8-9.9 8.7-6.7 1.2-12-4-17.8-7.7-6.2-3.9-11.6-2.1-17.4 2.8-3.5 2.9-6.2 1.8-8.2-1.3z"/>
      </g>
      <text class="caption" x="24" y="162">natural, less mechanical</text>
    </g>

    <g transform="translate(0 476)">
      <rect class="card" width="320" height="190" rx="10"/>
      <text class="label" x="24" y="35">07 / compact wave</text>
      <g>
        <text class="letters" x="50" y="124">GCHG</text>
        <rect class="cut" x="185" y="88" width="25" height="19" rx="7"/>
        <path class="wave" d="M175.3 100c7.4-6.6 14.7-6.6 22.1 0 7.8 7.1 15.2 7.1 22.7 0-1.5 3.8-5 6.5-9.3 6.7-5.4.2-9.7-3.4-14.5-6.1-5.4-3-10.3-1.8-15.2 1.5-2.5 1.7-4.4 1-5.8-2.1z"/>
      </g>
      <text class="caption" x="24" y="162">smallest clean wave</text>
    </g>

    <g transform="translate(368 476)">
      <rect class="card" width="320" height="190" rx="10"/>
      <text class="label" x="24" y="35">08 / sharp current</text>
      <g>
        <text class="letters" x="50" y="124">GCHG</text>
        <rect class="cut" x="183" y="88" width="29" height="19" rx="7"/>
        <path class="wave" d="M171.8 100.7c9.5-8.1 18.3-7.9 26.8.3 8.9 8.5 17.6 8.1 26.4-.6-1.7 4.6-5.8 7.9-11 8.2-6.4.4-11.5-4.1-17.1-7.8-6.2-4.1-12-2.7-17.7 1.9-2.9 2.3-5.4 1.5-7.4-2z"/>
      </g>
      <text class="caption" x="24" y="162">crisper stroke profile</text>
    </g>

    <g transform="translate(736 476)">
      <rect class="card" width="320" height="190" rx="10"/>
      <text class="label" x="24" y="35">09 / soft water</text>
      <g>
        <text class="letters" x="50" y="124">GCHG</text>
        <rect class="cut" x="183" y="88" width="29" height="19" rx="7"/>
        <path class="wave" d="M172.2 100c8.9-7 17.1-7 25.6 0 8.9 7.4 17.5 7.4 26.4 0-1.3 3.5-5 6.5-9.9 7-6.2.6-11.3-3.3-16.8-5.9-6.1-2.9-11.8-1.7-17.4 1.8-2.9 1.8-5.4 1.3-7.9-2.9z" opacity=".78"/>
      </g>
      <text class="caption" x="24" y="162">lower-contrast option</text>
    </g>
  </g>
</svg>
