<svg xmlns="http://www.w3.org/2000/svg" viewBox="0 0 1200 900" role="img" aria-labelledby="title desc">
  <title id="title">GCHG logo options</title>
  <desc id="desc">Nine GCHG logo concepts using the same letterforms and replacing only the H crossbar with water wave lines.</desc>
  <defs>
    <style>
      .title{font-family:-apple-system,BlinkMacSystemFont,"Segoe UI",Arial,sans-serif;font-weight:820;fill:#233532}
      .sub{font-family:-apple-system,BlinkMacSystemFont,"Segoe UI",Arial,sans-serif;font-weight:620;fill:#667873}
      .label{font-family:-apple-system,BlinkMacSystemFont,"Segoe UI",Arial,sans-serif;font-size:17px;font-weight:760;fill:#8fa6a0}
      .caption{font-family:-apple-system,BlinkMacSystemFont,"Segoe UI",Arial,sans-serif;font-size:13px;font-weight:650;fill:#6f8580}
      .card{fill:#071112;stroke:#213937;stroke-width:1.25}
      .letters{font-family:Arial,Helvetica,sans-serif;font-size:64px;font-weight:800;letter-spacing:8px;fill:#f7fbf8}
      .cut{fill:#071112}
      .wave{fill:none;stroke:#a8d2cc;stroke-linecap:round;stroke-linejoin:round}
      .wave-soft{fill:none;stroke:#d2e7e3;stroke-linecap:round;stroke-linejoin:round}
    </style>
  </defs>
  <rect width="1200" height="900" fill="#f5f9f7"/>
  <text class="title" x="72" y="64" font-size="28">GCHG logo directions</text>
  <text class="sub" x="72" y="96" font-size="16">Same letterforms; only the H crossbar becomes water</text>

  <g transform="translate(72 132)">
    <g transform="translate(0 0)">
      <rect class="card" width="320" height="190" rx="10"/>
      <text class="label" x="24" y="35">01 / quiet wave</text>
      <text class="letters" x="50" y="124">GCHG</text>
      <rect class="cut" x="180" y="88" width="19" height="23" rx="7"/>
      <path class="wave" d="M174 101c6.2-4.8 12.4-4.8 18.6 0s12.4 4.8 18.6 0" stroke-width="3.4"/>
      <text class="caption" x="24" y="162">single calm crossbar</text>
    </g>

    <g transform="translate(368 0)">
      <rect class="card" width="320" height="190" rx="10"/>
      <text class="label" x="24" y="35">02 / fine crest</text>
      <text class="letters" x="50" y="124">GCHG</text>
      <rect class="cut" x="180" y="88" width="19" height="23" rx="7"/>
      <path class="wave-soft" d="M174 98c6.2-4 12.4-4 18.6 0s12.4 4 18.6 0" stroke-width="1.8"/>
      <path class="wave" d="M174 105c6.2-4 12.4-4 18.6 0s12.4 4 18.6 0" stroke-width="2.1"/>
      <text class="caption" x="24" y="162">two-line water surface</text>
    </g>

    <g transform="translate(736 0)">
      <rect class="card" width="320" height="190" rx="10"/>
      <text class="label" x="24" y="35">03 / deep channel</text>
      <text class="letters" x="50" y="124">GCHG</text>
      <rect class="cut" x="180" y="88" width="19" height="23" rx="7"/>
      <path class="wave" d="M174 102c5.4-6.4 12.2-6.4 19 0s13.6 6.4 19 0" stroke-width="3.8"/>
      <path class="wave-soft" d="M175 108c5.8-2.6 11.6-2.6 17.4 0s11.6 2.6 17.4 0" stroke-width="1.3" opacity=".72"/>
      <text class="caption" x="24" y="162">stronger hydrology accent</text>
    </g>

    <g transform="translate(0 238)">
      <rect class="card" width="320" height="190" rx="10"/>
      <text class="label" x="24" y="35">04 / long reach</text>
      <text class="letters" x="50" y="124">GCHG</text>
      <rect class="cut" x="178" y="88" width="22" height="23" rx="7"/>
      <path class="wave" d="M171 101c7-4.8 14-4.8 21 0s14 4.8 21 0" stroke-width="3"/>
      <text class="caption" x="24" y="162">slightly wider H crossbar</text>
    </g>

    <g transform="translate(368 238)">
      <rect class="card" width="320" height="190" rx="10"/>
      <text class="label" x="24" y="35">05 / ribbon</text>
      <text class="letters" x="50" y="124">GCHG</text>
      <rect class="cut" x="180" y="88" width="19" height="23" rx="7"/>
      <path class="wave-soft" d="M174 99c6.2-4.8 12.4-4.8 18.6 0s12.4 4.8 18.6 0" stroke-width="5" opacity=".26"/>
      <path class="wave" d="M174 99c6.2-4.8 12.4-4.8 18.6 0s12.4 4.8 18.6 0" stroke-width="2"/>
      <text class="caption" x="24" y="162">soft ribbon underlay</text>
    </g>

    <g transform="translate(736 238)">
      <rect class="card" width="320" height="190" rx="10"/>
      <text class="label" x="24" y="35">06 / glacier line</text>
      <text class="letters" x="50" y="124">GCHG</text>
      <rect class="cut" x="180" y="88" width="19" height="23" rx="7"/>
      <path class="wave" d="M174 104c5.2-4.2 9.6-7.2 15.2-3.7 4.4 2.7 7 7 12.2 4.1 4-2.2 6.2-5.4 10-3.1" stroke-width="2.8"/>
      <text class="caption" x="24" y="162">asymmetric natural motion</text>
    </g>

    <g transform="translate(0 476)">
      <rect class="card" width="320" height="190" rx="10"/>
      <text class="label" x="24" y="35">07 / measured flow</text>
      <text class="letters" x="50" y="124">GCHG</text>
      <rect class="cut" x="180" y="88" width="19" height="23" rx="7"/>
      <path class="wave" d="M174 101h5.5c4.2-4.8 9.4-4.8 13.6 0h5.5c4.2-4.8 9.4-4.8 13.6 0" stroke-width="2.7"/>
      <text class="caption" x="24" y="162">technical, measured rhythm</text>
    </g>

    <g transform="translate(368 476)">
      <rect class="card" width="320" height="190" rx="10"/>
      <text class="label" x="24" y="35">08 / fractured surface</text>
      <text class="letters" x="50" y="124">GCHG</text>
      <rect class="cut" x="180" y="88" width="19" height="23" rx="7"/>
      <path class="wave" d="M174 101c6.2-4.8 12.4-4.8 18.6 0s12.4 4.8 18.6 0" stroke-width="2.9" stroke-dasharray="14 4"/>
      <path class="wave-soft" d="M175 107c5.8-2.6 11.6-2.6 17.4 0s11.6 2.6 17.4 0" stroke-width="1.2" opacity=".72"/>
      <text class="caption" x="24" y="162">broken line with restrained detail</text>
    </g>

    <g transform="translate(736 476)">
      <rect class="card" width="320" height="190" rx="10"/>
      <text class="label" x="24" y="35">09 / minimal signal</text>
      <text class="letters" x="50" y="124">GCHG</text>
      <rect class="cut" x="180" y="88" width="19" height="23" rx="7"/>
      <path class="wave" d="M176 101c5.4-3.8 10.8-3.8 16.2 0s10.8 3.8 16.2 0" stroke-width="2.3"/>
      <circle cx="174" cy="101" r="1.8" fill="#a8d2cc"/>
      <circle cx="211" cy="101" r="1.8" fill="#a8d2cc"/>
      <text class="caption" x="24" y="162">smallest usable water mark</text>
    </g>
  </g>
</svg>
