<svg xmlns="http://www.w3.org/2000/svg" viewBox="0 0 900 560" role="img" aria-labelledby="title desc">
  <title id="title">Publication visual</title>
  <desc id="desc">A refined publication card visual with abstract journal pages and water science graphics.</desc>
  <rect width="900" height="560" fill="#f7f8f5"/>
  <rect x="88" y="74" width="330" height="412" rx="8" fill="#ffffff" stroke="#dfe6e1"/>
  <rect x="136" y="124" width="178" height="18" rx="9" fill="#4b2572"/>
  <rect x="136" y="168" width="222" height="10" rx="5" fill="#c6d5d0"/>
  <rect x="136" y="194" width="196" height="10" rx="5" fill="#d8e2df"/>
  <rect x="136" y="220" width="236" height="10" rx="5" fill="#d8e2df"/>
  <path d="M130 332c52-45 95-36 140-82 33-34 67-40 106-35" fill="none" stroke="#16786f" stroke-width="5" stroke-linecap="round"/>
  <rect x="482" y="118" width="330" height="320" rx="10" fill="#142036"/>
  <path d="M508 354c74-50 127-44 186-11 58 32 107 4 169-42" fill="none" stroke="#a7f1e3" stroke-width="5" stroke-linecap="round"/>
  <path d="M526 225c64-52 125-50 178-23 63 32 109 23 156-15" fill="none" stroke="#ffffff" stroke-opacity=".35" stroke-width="4" stroke-linecap="round"/>
  <circle cx="691" cy="342" r="9" fill="#f1d18a"/>
  <circle cx="704" cy="203" r="8" fill="#f1d18a"/>
  <g fill="#ffffff" font-family="Arial, sans-serif">
    <text x="522" y="174" font-size="32" font-weight="700">Hydrosphere</text>
    <text x="522" y="210" font-size="16" opacity=".68">Observation / Modeling / Prediction</text>
  </g>
</svg>
