<svg xmlns="http://www.w3.org/2000/svg" viewBox="0 0 900 560" role="img" aria-labelledby="title desc">
  <title id="title">News visual</title>
  <desc id="desc">A seminar and announcement visual inspired by academic group news photography.</desc>
  <defs>
    <linearGradient id="stage" x1="0" x2="1" y1="0" y2="1">
      <stop offset="0" stop-color="#0d2c44"/>
      <stop offset=".55" stop-color="#12656b"/>
      <stop offset="1" stop-color="#4b2572"/>
    </linearGradient>
  </defs>
  <rect width="900" height="560" fill="#ffffff"/>
  <rect x="0" y="0" width="900" height="376" fill="url(#stage)"/>
  <g fill="none" stroke="#ffffff" stroke-opacity=".22" stroke-linecap="round">
    <path d="M80 284c132-96 231-82 336-29 120 61 236 39 404-76" stroke-width="5"/>
    <path d="M40 180c138-66 259-56 357-13 111 49 240 36 408-68" stroke-width="3"/>
  </g>
  <rect x="76" y="86" width="318" height="192" rx="8" fill="#ffffff" opacity=".92"/>
  <rect x="110" y="126" width="154" height="16" rx="8" fill="#4b2572"/>
  <rect x="110" y="166" width="220" height="9" rx="5" fill="#c7d8d3"/>
  <rect x="110" y="192" width="184" height="9" rx="5" fill="#d9e5e1"/>
  <rect x="110" y="218" width="244" height="9" rx="5" fill="#d9e5e1"/>
  <circle cx="668" cy="192" r="68" fill="#e9f4f1"/>
  <rect x="600" y="260" width="136" height="170" rx="68" fill="#17201d"/>
  <rect x="524" y="418" width="286" height="40" rx="20" fill="#17201d" opacity=".9"/>
  <g fill="#17201d" font-family="Arial, sans-serif" font-weight="700">
    <text x="76" y="466" font-size="34">Group news</text>
    <text x="76" y="506" font-size="18" opacity=".62">Seminars, calls, and group updates</text>
  </g>
</svg>
