<svg xmlns="http://www.w3.org/2000/svg" viewBox="0 0 900 560" role="img" aria-labelledby="title desc">
  <title id="title">Research visual</title>
  <desc id="desc">A clean hydrological research diagram combining river networks, model grids, and observation points.</desc>
  <defs>
    <linearGradient id="bg" x1="0" x2="1" y1="0" y2="1">
      <stop offset="0" stop-color="#edf7f4"/>
      <stop offset="1" stop-color="#ffffff"/>
    </linearGradient>
  </defs>
  <rect width="900" height="560" fill="url(#bg)"/>
  <g fill="none" stroke="#d7e5e2" stroke-width="1">
    <path d="M0 100h900M0 200h900M0 300h900M0 400h900M0 500h900M100 0v560M200 0v560M300 0v560M400 0v560M500 0v560M600 0v560M700 0v560M800 0v560"/>
  </g>
  <g fill="none" stroke-linecap="round" stroke-linejoin="round">
    <path d="M86 378c114-98 208-79 306-181 72-76 145-87 230-77 78 9 120-12 188-67" stroke="#16786f" stroke-width="7"/>
    <path d="M300 260c53 38 87 83 103 152M520 146c39 49 77 84 141 112M680 86c29 48 73 81 127 105" stroke="#46a69c" stroke-width="4"/>
    <path d="M73 454c139-66 235-58 348-8 105 46 231 9 384-74" stroke="#4b2572" stroke-opacity=".22" stroke-width="4"/>
    <path d="M60 180c111-69 212-69 304-36 107 38 192 20 309-52" stroke="#4b2572" stroke-opacity=".16" stroke-width="3"/>
  </g>
  <g>
    <circle cx="392" cy="197" r="11" fill="#9a7a35"/>
    <circle cx="622" cy="120" r="11" fill="#9a7a35"/>
    <circle cx="661" cy="258" r="9" fill="#9a7a35"/>
    <circle cx="403" cy="412" r="8" fill="#9a7a35"/>
  </g>
  <g fill="#17201d" opacity=".72" font-family="Arial, sans-serif" font-weight="700">
    <text x="66" y="78" font-size="28">Observation</text>
    <text x="66" y="114" font-size="16" opacity=".62">Modeling / Prediction / Risk</text>
  </g>
</svg>
